<svg width="971" height="170" viewBox="0 0 971 170" fill="none" xmlns="http://www.w3.org/2000/svg">
<g clip-path="url(#clip0_21_385)">
<path d="M1.40612 71.1237C1.42956 71.0769 1.45299 71.0302 1.47643 70.9834C1.42956 71.0068 1.40612 71.0535 1.40612 71.1237Z" fill="#460809"/>
<path d="M128.965 34.0888C128.543 28.758 127.161 23.8949 124.817 19.4993C122.497 15.1038 119.497 11.4097 115.818 8.39357C112.162 5.37748 107.873 3.15633 102.999 1.68335C98.1241 0.210379 92.9215 -0.303993 87.4141 0.140237C80.5241 0.490945 73.8685 1.65997 67.494 3.69408C61.1196 5.72819 55.0264 8.39357 49.2613 11.6902C43.4727 15.0103 38.0826 18.8914 33.0908 23.3805C28.0991 27.8462 23.5292 32.6626 19.4514 37.7595C15.3502 42.8799 11.788 48.2574 8.78828 53.8921C5.76511 59.5268 3.35126 65.1849 1.54674 70.8664V70.8898C2.15606 69.9078 3.09347 69.7909 4.33555 70.6092C5.67137 71.4743 7.05406 72.8304 8.48362 74.6774C9.91318 76.5245 11.2021 78.6054 12.3739 80.8733C13.5457 83.1646 14.2487 85.1052 14.5065 86.7418C14.4128 83.1178 15.3971 78.6521 17.4125 73.3214C19.428 67.9906 22.2168 62.3793 25.7555 56.4874C29.2943 50.5955 33.4423 44.6568 38.2466 38.6714C43.0274 32.686 48.1598 27.2851 53.6437 22.4687C59.1276 17.6523 64.799 13.6308 70.6578 10.4043C76.5167 7.17778 82.3052 5.40086 88 5.05015C91.445 5.14368 94.6791 5.96199 97.7023 7.50511C100.725 9.04823 103.327 11.1525 105.53 13.7711C107.733 16.3897 109.443 19.5461 110.709 23.1935C111.951 26.8408 112.584 30.7921 112.584 35.0006C112.584 41.3601 111.412 47.9535 109.092 54.7572C106.772 61.5609 103.655 68.2712 99.788 74.8879C95.8978 81.5046 91.4216 87.8407 86.3361 93.8495C81.2506 99.8817 75.9542 105.283 70.4938 110.122C65.0099 114.939 59.5025 118.937 53.9249 122.117C48.3707 125.296 43.1681 127.354 38.3404 128.312C35.7625 128.57 33.208 128.289 30.7004 127.471C28.1928 126.652 25.9196 125.32 23.8338 123.473C21.7715 121.626 20.0139 119.311 18.5843 116.505C17.1547 113.7 16.2407 110.473 15.7955 106.756C14.8346 105.89 13.4285 105.446 11.5302 105.399C9.63196 105.353 7.78056 105.633 5.97603 106.241C4.12463 106.849 2.62476 107.738 1.40612 108.953C0.210916 110.169 -0.234357 111.665 0.117175 113.466C1.57017 117.604 3.65592 121.088 6.32756 123.917C8.9992 126.746 11.9989 129.061 15.3268 130.814C18.6546 132.568 22.0762 133.854 25.6149 134.625C29.1537 135.397 32.5518 135.701 35.8328 135.537C43.3321 135.186 50.8549 133.386 58.4011 130.113C65.9473 126.839 73.1888 122.584 80.1257 117.324C87.0626 112.086 93.5308 106.054 99.5303 99.2504C105.53 92.4467 110.732 85.3624 115.115 77.9507C119.521 70.5625 122.942 63.0573 125.403 55.482C127.864 47.9535 129.059 40.799 128.965 34.0888Z" fill="#460809"/>
<path d="M1.54673 70.9131C1.5233 70.9365 1.49986 70.9832 1.49986 71.0066C1.5233 71.0066 1.5233 70.9598 1.54673 70.9131Z" fill="#460809"/>
<path d="M1.28894 71.2639C1.1952 71.5211 1.1249 71.8484 1.03115 72.2225C0.937412 72.62 0.890541 73.0175 0.890541 73.4383C0.890541 73.0876 0.937412 72.7603 1.03115 72.4096C1.10146 72.0822 1.1952 71.6848 1.28894 71.2639Z" fill="#460809"/>
<path d="M33.8876 119.732C35.0125 120.386 35.739 120.363 36.0906 119.662C38.6684 112.601 41.551 105.259 44.6914 97.5904C47.8317 89.9215 51.2533 82.1592 54.9092 74.3033C58.5651 66.4241 62.4788 58.5682 66.6269 50.7591C70.775 42.9266 75.0402 35.3046 79.4461 27.9163C79.7976 26.8876 79.7508 25.7887 79.3055 24.6197C78.8836 23.4506 78.204 22.3517 77.29 21.323C76.376 20.2943 75.3215 19.3357 74.1262 18.494C72.9076 17.6289 71.7358 16.9508 70.5641 16.4365C69.3923 15.9221 68.3846 15.5948 67.5175 15.4779C66.6503 15.3376 66.0879 15.5012 65.8301 15.9221C62.1976 22.4686 58.4011 29.7868 54.3702 37.8531C50.3627 45.9427 46.5428 54.1961 42.9103 62.6364C39.2778 71.0768 35.9968 79.3535 33.0205 87.49C30.0442 95.6264 27.7475 102.968 26.1071 109.491C25.943 110.263 26.2945 111.385 27.2085 112.858C28.1225 114.331 29.1771 115.687 30.3723 116.926C31.591 118.142 32.7627 119.077 33.8876 119.732Z" fill="#460809"/>
<path d="M176.703 74.4904C176.281 71.3106 175.227 68.8089 173.61 67.0086C173.446 65.6291 173.117 64.2497 172.649 62.8702C172.18 61.4908 171.43 60.2516 170.446 59.1293C169.462 58.0071 168.173 57.0718 166.626 56.3003C165.079 55.5287 163.228 55.0144 161.072 54.7572C155.728 54.3363 150.526 55.3651 145.487 57.8434C140.449 60.3451 135.925 63.6418 131.895 67.7801C127.887 71.9185 124.676 76.5245 122.263 81.598C119.849 86.6716 118.63 91.5815 118.63 96.3044C118.63 98.0346 118.841 99.8349 119.286 101.729C120.763 107.504 123.505 111.946 127.559 115.079C131.613 118.212 136.277 119.825 141.527 119.919C144.55 119.919 147.503 119.334 150.385 118.165C153.268 116.996 156.033 115.383 158.658 113.325C161.283 111.268 163.72 108.883 165.97 106.171C168.219 103.459 170.141 100.56 171.782 97.4501C173.422 94.3638 174.688 91.1607 175.602 87.9108C176.516 84.6375 176.961 81.411 176.961 78.2312C176.961 77.5532 176.937 76.8985 176.891 76.2907C176.844 75.6828 176.797 75.0982 176.703 74.4904ZM167.329 86.695C165.829 91.0438 163.837 95.112 161.376 98.8997C158.916 102.687 156.127 105.82 153.033 108.322C149.94 110.824 146.776 111.969 143.589 111.806C140.402 111.642 138.082 110.309 136.675 107.808C135.246 105.306 134.543 102.266 134.543 98.6425C134.543 96.2343 134.871 93.6624 135.504 90.9035C136.16 88.1446 137.027 85.4091 138.152 82.6969C139.277 79.9848 140.636 77.3662 142.23 74.8177C143.823 72.2692 145.604 70.0247 147.596 68.0373H147.456C149.612 65.8863 151.908 64.1561 154.369 62.8702C156.83 61.5843 158.916 60.8595 160.65 60.6724C162.642 60.5088 163.978 60.8361 164.657 61.7012C165.337 62.5663 165.735 63.595 165.829 64.7874C165.126 64.8809 164.4 65.1381 163.626 65.559C163.368 65.7226 162.829 66.05 162.009 66.5176C161.189 66.9852 160.369 67.5229 159.548 68.1308C158.728 68.7387 157.978 69.3934 157.275 70.1416C156.572 70.8664 156.197 71.5912 156.103 72.2692C156.103 72.9706 156.103 73.7422 156.103 74.5839C156.103 75.449 156.174 76.314 156.291 77.1557C156.431 78.0208 156.642 78.769 156.947 79.4237C157.252 80.0783 157.65 80.4758 158.166 80.6394H160.228C160.322 79.7744 160.673 78.8391 161.329 77.8104C161.986 76.7816 162.736 75.7997 163.603 74.9112C164.47 73.9994 165.36 73.2278 166.321 72.5965C167.259 71.9419 168.126 71.6379 168.899 71.6379C169.251 71.9886 169.415 73.0174 169.415 74.7242C169.532 78.3715 168.829 82.3462 167.329 86.695Z" fill="#460809"/>
<path d="M327.346 50.1513C326.104 49.1694 324.698 48.2341 323.151 47.3691C321.604 46.504 320.315 45.8727 319.261 45.4285C315.816 48.4446 313.191 51.0632 311.363 53.3077C309.559 55.5522 307.965 57.6565 306.582 59.6205C306.16 60.2985 305.715 60.9532 305.293 61.561C304.871 62.1689 304.379 62.8002 303.864 63.5016C301.098 67.1256 298.544 70.7028 296.177 74.2801C293.81 77.8573 291.49 81.4345 289.264 85.0585C288.842 85.9236 288.303 86.812 287.646 87.7005C286.99 88.6124 286.428 89.4774 285.889 90.3425C283.639 92.0727 281.788 94.2704 280.335 96.9826C279.702 98.1516 279.21 99.344 278.835 100.513C278.015 101.448 277.171 102.337 276.327 103.155C273.562 105.867 270.89 108.065 268.312 109.748C265.734 111.432 263.274 112.577 260.93 113.232C258.61 113.887 256.618 114.027 254.977 113.676C252.657 112.905 250.947 111.198 249.869 108.579C248.791 105.961 248.252 103.272 248.252 100.513V99.4843C256.009 97.2398 262.992 93.873 269.203 89.3605C275.413 84.8481 280.381 79.2368 284.084 72.5265C286.147 69.3468 287.178 66.4943 287.178 64.016C287.178 61.3506 286.193 59.1996 284.201 57.563C282.209 55.9263 279.585 55.0613 276.304 54.9911C272.929 54.8976 269.578 55.412 266.203 56.5342C262.828 57.6565 259.665 59.1061 256.688 60.8596C253.712 62.6132 251.04 64.5771 248.673 66.7281C246.306 68.8792 244.432 70.8665 243.049 72.6668C238.643 78.5119 235.456 83.8427 233.487 88.6124C233.183 89.3605 232.878 90.1321 232.62 90.8803C232.058 91.722 231.495 92.587 230.886 93.4521C228.308 97.2398 225.613 100.49 222.871 103.202C220.106 105.914 217.434 108.112 214.856 109.795C212.278 111.479 209.817 112.624 207.474 113.279C205.154 113.933 203.162 114.074 201.521 113.723C199.201 112.951 197.49 111.245 196.412 108.626C195.334 106.007 194.795 103.319 194.795 100.56C194.795 98.7595 195.006 96.9826 195.451 95.2758C196.131 92.5169 197.326 89.3372 199.014 85.7365C200.701 82.1126 202.716 78.6289 205.083 75.2854C207.45 71.9186 210.169 68.9727 213.239 66.4476C216.309 63.8991 219.52 62.2858 222.871 61.6078C223.902 61.4441 224.652 61.7013 225.144 62.3794C225.613 63.0808 225.847 64.016 225.847 65.2084C225.847 65.98 225.73 66.8451 225.519 67.7803C225.308 68.7389 224.933 69.6741 224.418 70.6093C224.254 71.4744 224.347 72.1291 224.746 72.6201C225.144 73.0877 225.683 73.3448 226.433 73.3916C227.16 73.4384 227.933 73.2747 228.753 72.9474C229.573 72.5967 230.323 72.0355 231.026 71.264C232.667 68.5986 233.487 66.1436 233.487 63.8991C233.487 61.3272 232.526 59.1996 230.651 57.5864C228.753 55.9497 226.175 55.0846 222.894 55.0145C219.52 54.921 216.168 55.4353 212.794 56.5576C209.419 57.6799 206.255 59.1295 203.279 60.883C200.303 62.6366 197.631 64.6005 195.264 66.7515C192.897 68.9025 191.022 70.8899 189.639 72.6902C185.234 78.5353 182.046 83.8661 180.078 88.6357C178.086 93.4054 177.195 98.2451 177.359 103.155C177.617 108.486 179.515 112.694 183.054 115.804C186.593 118.89 191.538 120.457 197.936 120.457C198.967 120.457 200.396 120.41 202.201 120.316C204.005 120.223 206.021 119.919 208.224 119.358C210.427 118.797 212.723 117.955 215.137 116.833C217.551 115.71 219.965 114.121 222.379 112.063C225.519 109.117 228.331 106.124 230.792 103.108C230.792 103.132 230.792 103.155 230.792 103.155C231.05 108.486 232.948 112.694 236.487 115.804C240.026 118.89 244.971 120.457 251.368 120.457C252.4 120.457 253.829 120.41 255.634 120.316C257.438 120.223 259.454 119.919 261.657 119.358C263.859 118.797 266.156 117.955 268.57 116.833C270.984 115.71 273.398 114.121 275.812 112.063C276.819 111.104 277.804 110.169 278.741 109.211C279.444 111.525 280.803 113.653 282.795 115.617C285.889 118.68 290.763 120.457 297.419 120.971C300.606 121.135 303.583 120.784 306.348 119.872C309.113 118.96 311.48 117.604 313.472 115.804C315.464 114.004 316.964 111.782 317.995 109.164C319.026 106.545 319.495 103.669 319.425 100.583L319.026 93.6158C318.862 91.8856 318.722 90.1788 318.628 88.4487C318.534 86.7185 318.487 85.0117 318.487 83.2816C318.487 79.9148 318.816 76.6181 319.448 73.3449C320.105 70.0716 321.323 67.0321 323.128 64.1797L324.674 61.865C325.612 60.4855 326.432 59.3633 327.065 58.4982C327.721 57.6331 328.635 56.6511 329.854 55.5289H329.713C330.58 54.921 330.697 54.126 330.111 53.144C329.526 52.1387 328.588 51.1567 327.346 50.1513ZM252.446 85.7132C254.134 82.0892 256.149 78.6055 258.516 75.2621C260.883 71.8953 263.602 68.9493 266.672 66.4242C269.742 63.8757 272.952 62.2625 276.304 61.5844C277.335 61.4208 278.085 61.678 278.577 62.356C279.046 63.0574 279.28 64.0394 279.28 65.3253C279.28 66.8684 278.928 68.4115 278.249 69.978C274.968 76.1739 270.82 81.4111 265.758 85.6664C260.719 89.9217 255.095 93.1248 248.884 95.2758C249.587 92.5169 250.759 89.3371 252.446 85.7132ZM304.122 107.971C303.77 109.561 303.254 110.941 302.575 112.11C301.872 113.279 300.981 114.191 299.856 114.892C298.731 115.594 297.396 115.851 295.849 115.664C294.63 115.57 293.294 115.126 291.841 114.308C290.365 113.489 289.123 112.227 288.092 110.497C287.74 109.889 287.459 109.211 287.248 108.439C287.037 107.667 286.92 106.896 286.92 106.124C286.92 104.838 287.201 103.669 287.764 102.641C288.326 101.612 289.053 100.723 289.967 99.9987C290.881 99.2739 291.912 98.6894 293.06 98.2451C294.232 97.8243 295.357 97.5905 296.482 97.5905C298.028 97.5905 299.856 98.4556 301.919 100.162C302.34 99.7415 302.504 98.9699 302.364 97.8944C302.223 96.8189 301.965 95.6733 301.591 94.4809C301.192 93.2885 300.794 92.1662 300.372 91.1141C299.95 90.0853 299.599 89.4307 299.341 89.1735C298.052 88.5656 296.669 88.1447 295.193 87.8876L297.255 84.661C298.38 82.8607 299.528 81.0137 300.747 79.1198C301.942 77.226 303.161 75.4257 304.379 73.6956C303.958 75.4257 303.653 77.0624 303.465 78.6756C303.301 80.2655 303.208 81.832 303.208 83.3751C303.208 85.1053 303.301 86.8588 303.465 88.6591C303.629 90.4594 303.817 92.1896 303.981 93.8262C304.145 95.3693 304.309 96.9124 304.426 98.4789C304.567 100.022 304.614 101.542 304.614 102.991C304.637 104.745 304.473 106.382 304.122 107.971Z" fill="#460809"/>
<path d="M421.275 81.0137C420.549 80.8033 419.752 80.7799 418.885 80.9435C418.018 81.1072 417.338 81.5514 416.823 82.2295C415.862 83.9596 414.831 85.7599 413.729 87.6538C412.604 89.5476 411.362 91.4882 409.979 93.4521C407.402 97.2398 404.706 100.49 401.964 103.202C399.199 105.914 396.527 108.112 393.95 109.795C391.372 111.479 388.911 112.624 386.567 113.279C384.247 113.934 382.255 114.074 380.615 113.723C378.295 112.952 376.584 111.245 375.506 108.626C374.428 106.007 373.889 103.319 373.889 100.56V99.5311C381.646 97.2866 388.63 93.9198 394.84 89.4073C401.051 84.8949 406.019 79.2835 409.722 72.5733C411.784 69.3935 412.815 66.5411 412.815 64.0628C412.815 61.3974 411.831 59.2464 409.839 57.6098C407.847 55.9731 405.222 55.108 401.941 55.0379C398.566 54.9444 395.215 55.4587 391.84 56.581C388.466 57.7033 385.302 59.1529 382.326 60.9064C379.349 62.66 376.678 64.6239 374.311 66.7749C371.944 68.9259 370.069 70.9133 368.686 72.7136C364.28 78.5587 361.093 83.8895 359.125 88.6591C357.133 93.4288 356.242 98.2685 356.406 103.178C356.664 108.509 358.562 112.718 362.101 115.827C365.64 118.914 370.584 120.48 376.982 120.48C378.013 120.48 379.443 120.433 381.248 120.34C383.052 120.246 385.068 119.942 387.27 119.381C389.473 118.82 391.77 117.978 394.184 116.856C396.598 115.734 399.012 114.144 401.425 112.086C405.738 108.042 409.394 103.927 412.417 99.7649C415.44 95.6032 417.971 91.8389 420.057 88.4721L422.517 84.474C423.033 83.6089 423.15 82.8841 422.845 82.2762C422.517 81.6216 422.002 81.2241 421.275 81.0137ZM378.06 85.7132C379.748 82.0892 381.763 78.6055 384.13 75.2621C386.497 71.8953 389.216 68.9493 392.286 66.4242C395.356 63.8757 398.566 62.2625 401.918 61.5844C402.949 61.4208 403.699 61.678 404.191 62.356C404.66 63.0574 404.894 64.0394 404.894 65.3253C404.894 66.8685 404.542 68.4116 403.863 69.9781C400.582 76.1739 396.434 81.4112 391.372 85.6664C386.333 89.9217 380.709 93.1248 374.498 95.2758C375.201 92.5169 376.373 89.3372 378.06 85.7132Z" fill="#460809"/>
<path d="M547.522 42.4825C549.022 42.9968 550.615 43.254 552.232 43.254C554.646 43.254 556.662 42.7397 558.302 41.7109H558.701C560.083 40.2379 561.443 38.461 562.778 36.3568C564.114 34.2525 565.333 32.008 566.411 29.6465C567.489 27.2851 568.356 24.8535 568.989 22.3518C569.645 19.8501 569.95 17.4887 569.95 15.2441C569.95 13.3503 569.668 11.55 569.106 9.81984C568.543 8.08968 567.653 6.56994 566.387 5.23725C565.145 3.90456 563.505 2.82905 561.466 2.01073C559.451 1.19241 556.966 0.701423 554.037 0.537759C549.045 0.280573 543.889 0.607901 538.593 1.49636C533.297 2.4082 528.094 3.78766 523.032 5.63472C517.946 7.48178 513.095 9.7497 508.502 12.4151C503.885 15.0805 499.807 18.0732 496.222 21.3932C492.636 24.7133 489.707 28.2671 487.433 32.1015C485.16 35.9359 483.801 39.8638 483.356 43.9087C483.098 46.4805 483.356 48.9589 484.129 51.3203C484.902 53.6818 486.027 55.9964 487.48 58.2176C488.933 60.4621 490.691 62.6599 492.706 64.8109C494.722 66.9619 496.784 69.1129 498.847 71.2639C500.651 73.1578 502.456 75.075 504.284 77.0155C506.088 78.9561 507.682 80.9435 509.064 82.9542C510.447 84.9883 511.572 87.0926 512.486 89.267C513.4 91.4647 513.845 93.8028 513.845 96.3045C513.845 100.864 513.002 105.002 511.314 108.696C509.627 112.39 507.26 115.547 504.213 118.119C501.167 120.69 497.511 122.701 493.292 124.127C489.074 125.554 484.41 126.255 479.348 126.255C476.419 126.255 473.466 126.045 470.49 125.6C467.513 125.179 464.818 124.314 462.404 123.028C459.991 121.743 457.999 119.942 456.452 117.674C454.905 115.406 454.132 112.414 454.132 108.696C454.132 106.124 454.6 103.903 455.561 102.056C456.499 100.209 457.717 98.549 459.194 97.0761C460.67 95.6031 462.334 94.3405 464.232 93.265C466.131 92.1895 467.982 91.1374 469.787 90.1087L472.763 88.4253C472.927 87.9109 472.247 87.1861 470.701 86.2275C469.154 85.2923 467.326 84.4272 465.264 83.6556C463.201 82.8841 461.233 82.2996 459.381 81.9021C457.53 81.5046 456.335 81.528 455.819 81.9722H455.96C449.702 86.2743 445.39 90.5295 443 94.7614C440.61 98.9699 439.508 103.319 439.672 107.808C439.836 112.11 441.219 115.874 443.82 119.101C446.398 122.327 449.585 125.039 453.335 127.237C457.085 129.435 461.139 131.118 465.498 132.334C469.857 133.526 473.935 134.275 477.731 134.532C484.715 134.789 491.394 133.76 497.792 131.445C504.166 129.131 509.885 126.091 514.923 122.35C519.962 118.61 524.11 114.424 527.344 109.772C530.578 105.119 532.453 100.56 532.968 96.0941C533.226 93.265 532.898 90.5061 532.008 87.8408C531.094 85.1754 529.875 82.5801 528.328 80.0316C526.782 77.4832 524.954 75.0282 522.891 72.62C520.829 70.2118 518.696 67.8504 516.564 65.5123C514.829 63.712 513.119 61.7948 511.384 59.7607C509.65 57.75 508.08 55.6457 506.674 53.4947C505.244 51.3437 504.049 49.1225 503.041 46.8546C502.057 44.5867 501.424 42.2253 501.167 39.8171C500.745 36.2866 501.214 33.0367 502.596 30.0674C503.979 27.0981 505.947 24.4093 508.478 22.0011C511.033 19.5929 514.009 17.4887 517.478 15.6884C520.923 13.8881 524.508 12.3449 528.211 11.1058C531.914 9.8666 535.617 8.908 539.343 8.27672C543.046 7.62207 546.467 7.31812 549.561 7.31812C550.334 7.31812 551.107 7.31812 551.881 7.31812C552.654 7.31812 553.381 7.41164 554.084 7.57531C556.334 7.92601 557.904 8.65081 558.794 9.77308C559.708 10.8953 560.154 12.2748 560.154 13.9114C560.154 15.8988 559.474 18.0264 558.138 20.2943C556.802 22.5856 555.138 24.8068 553.146 27.0045C551.154 29.2023 549.022 31.1897 546.749 33.0133C544.452 34.8136 542.366 36.1463 540.468 37.0114C540.304 37.3621 540.515 37.8765 541.124 38.5545C541.733 39.256 542.577 39.9574 543.655 40.6822C544.733 41.3368 546.022 41.9681 547.522 42.4825Z" fill="#460809"/>
<path d="M708.781 77.5767C706.977 76.5479 705.102 75.7764 703.157 75.262C701.211 74.7476 699.735 74.7476 698.704 75.262C698.61 76.3843 698.376 77.6235 698.001 79.0029C697.602 80.3824 697.11 81.8319 696.524 83.3283C695.915 84.8247 695.282 86.3678 694.579 87.9109C693.9 89.454 693.197 90.9737 692.517 92.4233C691.228 94.2236 689.775 96.1175 688.181 98.1048C686.588 100.092 684.994 101.916 683.401 103.599C681.807 105.283 680.284 106.709 678.807 107.925C677.331 109.14 676.089 109.865 675.058 110.122C673.511 110.473 672.245 110.497 671.308 110.193C670.347 109.889 669.574 109.351 668.988 108.579C668.378 107.808 667.98 106.873 667.769 105.797C667.558 104.722 667.441 103.576 667.441 102.383C667.441 101.004 667.582 99.6246 667.839 98.2451C668.097 96.8657 668.355 95.6732 668.613 94.6211C669.222 92.4701 670.042 90.132 671.073 87.5836C672.105 85.0351 673.347 82.51 674.753 79.9615C676.182 77.413 677.753 74.9814 679.463 72.6668C681.198 70.3521 683.049 68.2712 685.018 66.4709C687.01 64.6706 689.048 63.221 691.158 62.1455C693.267 61.07 695.446 60.579 697.696 60.6725C698.985 60.7661 700.04 61.1402 700.86 61.8416C701.68 62.543 702.313 63.3613 702.735 64.3667C703.157 65.3487 703.461 66.4242 703.649 67.5932C703.813 68.7622 703.953 69.8143 704.047 70.7496C704.047 71.1003 704.094 71.4276 704.188 71.7082C704.281 72.0121 704.328 72.3394 704.328 72.6668C704.328 73.3682 704.68 73.8826 705.36 74.2099C706.039 74.5606 706.836 74.7009 707.68 74.6541C708.547 74.6074 709.344 74.4203 710.07 74.0696C710.797 73.7189 711.172 73.2513 711.172 72.6434C711.265 70.8431 711.195 69.0194 710.984 67.2191C710.773 65.4188 710.304 63.712 709.625 62.1221C708.945 60.5323 707.961 59.1294 706.719 57.937C705.477 56.7446 703.883 55.8795 702.008 55.3652C699.946 54.8508 697.743 54.5936 695.399 54.5936C691.697 54.5936 688.088 55.295 684.596 56.7212C681.104 58.1474 677.753 60.0413 674.565 62.4027C671.378 64.7641 668.425 67.4763 665.707 70.5391C662.988 73.602 660.621 76.7584 658.582 80.0316C656.544 83.3049 654.88 86.5782 653.544 89.8515C653.497 89.945 653.473 90.0619 653.427 90.1554C652.63 91.418 651.81 92.6805 650.966 93.9665C649.208 96.6318 647.333 99.1569 645.412 101.518C643.467 103.88 641.428 105.984 639.272 107.831C637.116 109.678 634.866 111.034 632.546 111.899H631.514C631.093 111.478 630.858 110.309 630.858 108.416C630.858 106.615 631.257 104.277 632.077 101.448C632.897 98.6192 633.952 95.533 635.241 92.2129C636.53 88.8929 637.983 85.4793 639.576 81.9489C641.17 78.4184 642.74 75.0516 644.287 71.8251C645.834 68.5986 647.287 65.676 648.622 63.0574C649.958 60.4387 651.013 58.3813 651.786 56.9317L652.56 55.3885C653.942 52.7232 655.372 49.8941 656.895 46.878C658.395 43.8619 659.824 41.0095 661.16 38.2974C662.496 35.5852 663.668 33.177 664.652 31.0728C665.636 28.9685 666.316 27.4488 666.668 26.4902C667.183 25.0172 666.925 23.5676 665.894 22.0946C664.863 20.6217 663.527 19.3825 661.887 18.3537C660.246 17.325 658.512 16.6002 656.708 16.156C654.903 15.7351 653.473 15.7585 652.442 16.2963C651.224 20.7619 649.372 25.9758 646.888 31.9145C644.381 37.8531 641.709 43.745 638.873 49.5902L633.835 59.5269C630.132 66.7515 626.687 74.0228 623.476 81.341C622.89 82.6503 622.351 83.9596 621.859 85.2689C621.765 85.4092 621.648 85.5728 621.554 85.7131C620.008 88.2148 618.344 90.8335 616.563 93.5924C614.805 96.3513 612.907 98.9465 610.938 101.401C608.946 103.856 606.884 106.031 604.728 107.925C602.572 109.818 600.322 111.151 598.002 111.923H596.83C596.572 111.666 596.432 110.637 596.432 108.836C596.432 107.644 596.619 106.241 597.018 104.651C597.416 103.061 597.885 101.401 598.447 99.6713C599.01 97.9412 599.642 96.2344 600.322 94.5042C601.002 92.7741 601.705 91.1374 602.384 89.5943C602.642 88.9163 602.923 88.2382 603.228 87.5836C603.533 86.9289 603.767 86.3678 603.931 85.83C604.353 84.3571 604.095 82.8841 603.158 81.3877C602.197 79.8914 600.978 78.5821 599.478 77.4598C597.978 76.3375 596.385 75.4958 594.697 74.9347C593.01 74.3736 591.651 74.3502 590.62 74.8645H589.706C589.542 76.8519 589.096 79.0497 588.417 81.4579C587.737 83.8661 586.917 86.321 585.956 88.8227C584.831 90.623 583.378 92.7039 581.62 95.0186C579.863 97.3333 578.011 99.5778 576.113 101.729C574.215 103.88 572.364 105.75 570.559 107.34C568.754 108.93 567.231 109.865 566.036 110.122C564.489 110.473 563.224 110.497 562.286 110.193C561.325 109.889 560.552 109.351 559.966 108.579C559.357 107.808 558.958 106.873 558.747 105.797C558.537 104.722 558.419 103.576 558.419 102.383C558.419 101.004 558.56 99.6246 558.818 98.2451C559.076 96.8657 559.333 95.6732 559.591 94.6211C560.201 92.4701 561.021 90.132 562.052 87.5836C563.083 85.0351 564.325 82.51 565.731 79.9615C567.161 77.413 568.731 74.9814 570.442 72.6668C572.176 70.3521 574.027 68.2712 575.996 66.4709C577.988 64.6706 580.027 63.221 582.136 62.1455C584.245 61.07 586.425 60.579 588.675 60.6725C589.963 60.7661 591.018 61.1402 591.838 61.8416C592.659 62.543 593.291 63.3613 593.713 64.3667C594.135 65.3487 594.44 66.4242 594.627 67.5932C594.791 68.7622 594.932 69.8143 595.026 70.7496C595.026 71.1003 595.072 71.4276 595.166 71.7082C595.26 72.0121 595.307 72.3394 595.307 72.6668C595.307 73.3682 595.658 73.8826 596.338 74.2099C597.018 74.5606 597.814 74.7009 598.658 74.6541C599.525 74.6074 600.322 74.4203 601.048 74.0696C601.775 73.7189 602.15 73.2513 602.15 72.6434C602.244 70.8431 602.173 69.0194 601.962 67.2191C601.752 65.4188 601.283 63.712 600.603 62.1221C599.924 60.5323 598.939 59.1294 597.697 57.937C596.455 56.7446 594.861 55.8795 592.987 55.3652C590.924 54.8508 588.721 54.5936 586.378 54.5936C582.675 54.5936 579.066 55.295 575.574 56.7212C572.082 58.1474 568.731 60.0413 565.544 62.4027C562.357 64.7641 559.404 67.4763 556.685 70.5391C553.967 73.602 551.6 76.7584 549.561 80.0316C547.522 83.3049 545.858 86.5782 544.522 89.8515C543.186 93.1248 542.343 96.1408 541.991 98.8764C541.897 99.3907 541.851 99.9986 541.804 100.677C541.757 101.355 541.733 102.056 541.733 102.734C541.733 104.464 541.991 106.241 542.507 108.088C543.022 109.935 543.889 111.666 545.085 113.255C546.28 114.845 547.944 116.248 550.076 117.441C552.186 118.656 554.787 119.381 557.904 119.638C559.802 119.638 561.7 119.264 563.599 118.539C565.497 117.815 567.372 116.833 569.223 115.64C571.075 114.448 572.879 113.068 574.66 111.502C576.418 109.959 578.129 108.322 579.769 106.592V108.392C579.769 111.478 580.706 114.167 582.605 116.388C584.503 118.633 587.573 119.919 591.791 120.27C593.596 120.363 595.26 120.199 596.783 119.825C598.283 119.428 599.642 118.937 600.861 118.352C602.056 117.744 603.134 117.113 604.095 116.412C605.032 115.734 605.829 115.126 606.415 114.611C610.352 111.245 613.844 107.504 616.867 103.436C616.703 104.207 616.586 105.049 616.492 105.961C616.399 106.919 616.375 107.714 616.375 108.416C616.375 111.689 617.172 114.448 618.742 116.669C620.312 118.914 622.867 120.106 626.382 120.293C628.093 120.293 629.71 120.106 631.257 119.708C632.803 119.311 634.21 118.843 635.452 118.282C636.694 117.721 637.795 117.09 638.756 116.412C639.693 115.734 640.49 115.126 641.076 114.611C643.068 112.975 644.966 111.151 646.771 109.117C648.177 107.551 649.536 105.914 650.849 104.231C650.966 105.493 651.2 106.779 651.552 108.088C652.067 109.935 652.934 111.666 654.13 113.255C655.325 114.845 656.989 116.248 659.121 117.441C661.231 118.656 663.832 119.381 666.949 119.638C669.527 119.638 672.105 118.984 674.636 117.698C677.19 116.412 679.698 114.775 682.205 112.788L679.112 119.895L673.558 131.773C671.917 131.258 670.324 130.791 668.777 130.347C667.23 129.926 665.566 129.552 663.785 129.248C662.027 128.944 660.129 128.71 658.09 128.546C656.051 128.383 653.755 128.289 651.177 128.289C646.607 128.289 642.154 128.944 637.842 130.3C633.53 131.633 629.71 133.48 626.382 135.841C623.054 138.202 620.453 141.008 618.555 144.235C616.656 147.461 615.789 150.968 615.977 154.756C616.141 157.772 616.938 160.25 618.367 162.238C619.797 164.225 621.578 165.792 623.734 166.937C625.89 168.106 628.304 168.901 630.975 169.322C633.647 169.743 636.319 169.977 638.99 169.977C643.724 169.883 648.013 169.252 651.81 168.036C655.606 166.82 659.098 165.184 662.285 163.056C665.472 160.952 668.402 158.45 671.073 155.574C673.745 152.698 676.323 149.565 678.831 146.222L686.33 150.875H686.189L694.204 155.902C695.493 156.673 697.181 157.071 699.243 157.071C700.883 157.071 702.454 156.673 703.953 155.902C705.453 155.13 706.766 154.265 707.844 153.33C708.922 152.371 709.719 151.483 710.234 150.618C710.75 149.752 710.797 149.238 710.375 149.074C706.93 147.859 703.602 146.479 700.415 144.889C697.227 143.299 694.204 141.686 691.369 140.05C690.337 139.442 689.33 138.857 688.322 138.296C687.338 137.735 686.283 137.197 685.158 136.683L714.406 85.4326C714.921 84.0531 714.57 82.6503 713.374 81.2474C712.109 79.8446 710.586 78.6288 708.781 77.5767ZM658.137 155.153C654.387 159.455 650.193 162.635 645.529 164.693C644.24 165.113 642.857 165.488 641.381 165.792C639.904 166.095 638.498 166.236 637.116 166.236C635.381 166.236 633.717 166.025 632.077 165.581C630.436 165.16 628.983 164.459 627.671 163.524C626.382 162.565 625.328 161.349 624.507 159.853C623.687 158.357 623.242 156.509 623.148 154.358C623.054 151.342 623.921 148.724 625.726 146.479C627.53 144.235 629.827 142.388 632.593 140.938C635.358 139.465 638.404 138.39 641.709 137.711C645.037 137.01 648.201 136.729 651.224 136.8C654.505 136.893 657.528 137.244 660.27 137.899C663.035 138.553 665.777 139.465 668.542 140.681C665.355 146.035 661.887 150.851 658.137 155.153Z" fill="#460809"/>
<path d="M922.957 87.9109C923.871 84.6376 924.317 81.4111 924.317 78.2313C924.317 77.5533 924.293 76.8987 924.246 76.2908C924.2 75.6829 924.129 75.0984 924.059 74.4905C923.637 71.3107 922.583 68.809 920.965 67.0087C920.801 65.6292 920.473 64.2498 920.005 62.8703C919.536 61.4909 918.786 60.2517 917.802 59.1294C916.817 58.0072 915.528 57.0719 913.982 56.3004C912.435 55.5288 910.584 55.0145 908.428 54.7573C903.084 54.3364 897.882 55.3652 892.843 57.8435C887.804 60.3452 883.281 63.6419 879.25 67.7802C875.243 71.9186 872.032 76.5246 869.618 81.5981C868.423 84.0999 867.533 86.5782 866.923 88.9864C865.986 90.4828 865.002 92.0025 863.994 93.5924C862.236 96.3513 860.338 98.9465 858.369 101.401C856.377 103.856 854.315 106.031 852.159 107.925C850.003 109.818 847.753 111.151 845.433 111.923H844.261C843.746 111.572 843.488 110.286 843.488 108.042C843.488 106.054 843.886 103.763 844.66 101.144C845.433 98.5257 846.347 95.9538 847.378 93.4755H847.238C849.23 88.3084 851.55 83.0711 854.221 77.7404C856.893 72.4096 859.658 67.0788 862.494 61.7247H862.353L865.728 55.4119C867.111 52.8401 868.564 50.0344 870.134 47.0183C871.681 44.0022 873.134 41.1498 874.47 38.4376C875.805 35.7255 876.977 33.2939 877.961 31.1429C878.946 28.9919 879.625 27.4488 879.977 26.4902C880.492 25.0172 880.235 23.5676 879.204 22.0946C878.172 20.6217 876.837 19.3825 875.196 18.3537C873.556 17.325 871.845 16.6002 870.087 16.156C868.329 15.7351 866.923 15.7585 865.892 16.2963C865.283 18.5408 864.533 20.9724 863.619 23.591C862.705 26.2096 861.65 28.9919 860.455 31.9145C859.237 34.837 857.924 37.8064 856.518 40.8225C855.088 43.8386 853.612 46.7611 852.065 49.5902L848.433 56.4407L846.628 59.8075C845.152 57.6565 843.09 56.1835 840.418 55.4119C838.356 54.8975 836.153 54.6404 833.809 54.6404C830.106 54.6404 826.497 55.3418 823.005 56.768C819.514 58.1942 816.162 60.088 812.975 62.4495C809.788 64.8109 806.835 67.523 804.116 70.5859C801.398 73.6488 799.031 76.8051 796.992 80.0784C794.953 83.3517 793.289 86.625 791.953 89.8982C791.836 90.1554 791.743 90.4126 791.649 90.6698C791.039 91.6518 790.407 92.6338 789.75 93.6391C787.993 96.398 786.095 98.9933 784.126 101.448C782.134 103.903 780.072 106.078 777.916 107.971C775.76 109.865 773.51 111.198 771.19 111.969H770.018C769.76 111.712 769.619 110.684 769.619 108.883C769.619 107.691 769.807 106.288 770.205 104.698C770.604 103.108 771.072 101.448 771.635 99.7181C772.197 97.9879 772.83 96.2811 773.51 94.551C774.189 92.8208 774.892 91.1842 775.572 89.6411C775.83 88.963 776.111 88.285 776.416 87.6303C776.72 86.9757 776.955 86.4145 777.119 85.8768C777.541 84.4038 777.283 82.9308 776.345 81.4345C775.385 79.9381 774.166 78.6288 772.666 77.5065C771.166 76.3843 769.573 75.5426 767.885 74.9814C766.198 74.4203 764.839 74.3969 763.807 74.9113H762.894C762.729 76.8987 762.284 79.0964 761.605 81.5046C760.925 83.9128 760.105 86.3678 759.144 88.8695C758.019 90.6698 756.566 92.7507 754.808 95.0653C753.051 97.38 751.199 99.6245 749.301 101.776C747.403 103.927 745.551 105.797 743.747 107.387C741.942 108.977 740.419 109.912 739.224 110.169C737.677 110.52 736.411 110.543 735.474 110.239C734.513 109.935 733.74 109.398 733.154 108.626C732.545 107.855 732.146 106.919 731.935 105.844C731.724 104.768 731.607 103.623 731.607 102.43C731.607 101.051 731.748 99.6713 732.006 98.2919C732.263 96.9124 732.521 95.72 732.779 94.6679C733.388 92.5169 734.209 90.1788 735.24 87.6303C736.271 85.0818 737.513 82.5568 738.919 80.0083C740.349 77.4598 741.919 75.0282 743.63 72.7135C745.364 70.3989 747.215 68.318 749.184 66.5177C751.176 64.7174 753.215 63.2678 755.324 62.1923C757.433 61.1168 759.613 60.6258 761.862 60.7193C763.151 60.8128 764.206 61.1869 765.026 61.8883C765.846 62.5898 766.479 63.4081 766.901 64.4134C767.323 65.3954 767.627 66.4709 767.815 67.6399C767.979 68.809 768.12 69.8611 768.213 70.7963C768.213 71.147 768.26 71.4744 768.354 71.7549C768.448 72.0589 768.495 72.3862 768.495 72.7135C768.495 73.4149 768.846 73.9293 769.526 74.2566C770.205 74.6074 771.002 74.7476 771.846 74.7009C772.713 74.6541 773.51 74.4671 774.236 74.1164C774.963 73.7657 775.338 73.298 775.338 72.6902C775.431 70.8898 775.361 69.0662 775.15 67.2659C774.939 65.4656 774.471 63.7588 773.791 62.1689C773.111 60.579 772.127 59.1762 770.885 57.9838C769.643 56.7914 768.049 55.9263 766.174 55.4119C764.112 54.8975 761.909 54.6404 759.566 54.6404C755.863 54.6404 752.254 55.3418 748.762 56.768C745.27 58.1942 741.919 60.088 738.732 62.4495C735.544 64.8109 732.591 67.523 729.873 70.5859C727.154 73.6488 724.787 76.8051 722.749 80.0784C720.71 83.3517 719.046 86.625 717.71 89.8982C716.374 93.1715 715.53 96.1876 715.179 98.9231C715.085 99.4375 715.038 100.045 714.991 100.723C714.945 101.401 714.921 102.103 714.921 102.781C714.921 104.511 715.179 106.288 715.695 108.135C716.21 109.982 717.077 111.712 718.272 113.302C719.468 114.892 721.132 116.295 723.264 117.487C725.373 118.703 727.975 119.428 731.092 119.685C732.99 119.685 734.888 119.311 736.786 118.586C738.685 117.861 740.56 116.879 742.411 115.687C744.262 114.495 746.067 113.115 747.848 111.549C749.606 110.006 751.316 108.369 752.957 106.639V108.439C752.957 111.525 753.894 114.214 755.793 116.435C757.691 118.68 760.761 119.966 764.979 120.316C766.784 120.41 768.448 120.246 769.971 119.872C771.471 119.475 772.83 118.984 774.049 118.399C775.244 117.791 776.322 117.16 777.283 116.459C778.22 115.781 779.017 115.173 779.603 114.658C783.189 111.572 786.423 108.205 789.258 104.534C789.376 105.703 789.61 106.896 789.938 108.135C790.454 109.982 791.321 111.712 792.516 113.302C793.711 114.892 795.375 116.295 797.508 117.487C799.617 118.703 802.218 119.428 805.335 119.685C807.233 119.685 809.132 119.311 811.03 118.586C812.928 117.861 814.803 116.879 816.654 115.687C818.506 114.495 820.31 113.115 822.091 111.549C823.849 110.006 825.56 108.369 827.2 106.639V108.439C827.2 111.525 828.138 114.214 830.036 116.435C831.934 118.68 835.004 119.966 839.223 120.316C841.027 120.41 842.691 120.246 844.214 119.872C845.714 119.475 847.074 118.984 848.292 118.399C849.487 117.791 850.565 117.16 851.526 116.459C852.464 115.781 853.26 115.173 853.846 114.658C858.065 111.034 861.791 107.013 864.978 102.594C865.47 101.916 865.939 101.238 866.408 100.56C866.478 100.957 866.548 101.355 866.642 101.752C868.119 107.527 870.861 111.969 874.915 115.102C878.969 118.235 883.633 119.849 888.882 119.942C891.906 119.942 894.858 119.358 897.741 118.189C900.623 117.02 903.389 115.406 906.014 113.349C908.638 111.291 911.076 108.907 913.326 106.194C915.575 103.482 917.497 100.583 919.137 97.4735C920.778 94.3639 922.044 91.1842 922.957 87.9109ZM838.285 76.3609C837.067 78.9795 835.965 81.6215 834.911 84.2869L833.223 88.9396C832.098 90.7399 830.645 92.8208 828.888 95.1355C827.13 97.4502 825.302 99.6947 823.451 101.846C821.599 103.997 819.771 105.844 817.943 107.387C816.139 108.93 814.615 109.842 813.42 110.099C811.874 110.45 810.608 110.473 809.671 110.169C808.71 109.865 807.936 109.327 807.351 108.556C806.741 107.784 806.343 106.849 806.132 105.774C805.921 104.698 805.804 103.552 805.804 102.36C805.804 100.981 805.944 99.6012 806.202 98.2217C806.46 96.8423 806.718 95.6499 806.976 94.5977C807.585 92.4467 808.405 90.1087 809.436 87.5602C810.467 85.0117 811.71 82.4866 813.116 79.9381C814.545 77.3896 816.115 74.9581 817.826 72.6434C819.56 70.3287 821.412 68.2478 823.38 66.4475C825.372 64.6472 827.411 63.1977 829.52 62.1221C831.63 61.0466 833.809 60.5556 836.059 60.6492C838.215 60.8128 839.691 61.7247 840.512 63.3613C841.332 64.998 841.871 66.6814 842.129 68.3881C840.793 71.1003 839.48 73.7423 838.285 76.3609ZM914.661 86.6951C913.161 91.0439 911.169 95.1121 908.709 98.8998C906.248 102.687 903.459 105.82 900.366 108.322C897.272 110.824 894.108 111.969 890.921 111.806C887.734 111.642 885.414 110.309 884.008 107.808C882.578 105.306 881.875 102.267 881.875 98.6426C881.875 96.2344 882.203 93.6625 882.836 90.9036C883.492 88.1447 884.359 85.4092 885.484 82.697C886.609 79.9849 887.968 77.3663 889.562 74.8178C891.156 72.2693 892.937 70.0248 894.929 68.0374H894.788C896.944 65.8864 899.241 64.1562 901.702 62.8703C904.162 61.5844 906.248 60.8596 907.982 60.6725C909.974 60.5089 911.31 60.8362 911.99 61.7013C912.669 62.5664 913.068 63.5951 913.161 64.7875C912.482 64.8811 911.732 65.1382 910.959 65.5591C910.701 65.7227 910.162 66.0501 909.341 66.5177C908.521 66.9853 907.701 67.523 906.881 68.1309C906.061 68.7388 905.311 69.3935 904.608 70.1417C903.904 70.8665 903.529 71.5913 903.436 72.2693C903.436 72.9707 903.436 73.7423 903.436 74.584C903.436 75.4491 903.506 76.3141 903.623 77.1558C903.764 78.0209 903.975 78.7691 904.279 79.4238C904.584 80.0784 904.983 80.4759 905.498 80.6395H907.56C907.654 79.7745 908.006 78.8392 908.662 77.8105C909.318 76.7817 910.068 75.7998 910.935 74.9113C911.802 73.9995 912.693 73.2279 913.654 72.5966C914.591 71.942 915.458 71.638 916.232 71.638C916.583 71.9887 916.747 73.0175 916.747 74.7243C916.888 78.3716 916.185 82.3463 914.661 86.6951Z" fill="#460809"/>
<path d="M970.625 53.1207C970.016 52.1387 969.102 51.1333 967.836 50.1513C966.594 49.1694 965.188 48.2341 963.641 47.3691C962.095 46.504 960.806 45.8727 959.751 45.4285C956.306 48.4446 953.681 51.0632 951.853 53.3077C950.049 55.5522 948.455 57.6565 947.072 59.6205C946.651 60.2985 946.205 60.9531 945.783 61.561C945.362 62.1689 944.87 62.8002 944.354 63.5016C941.589 67.1256 939.034 70.7028 936.667 74.2801C934.3 77.8573 931.98 81.4345 929.754 85.0585C929.332 85.9236 928.793 86.812 928.137 87.7005C927.48 88.6123 926.918 89.4774 926.379 90.3425C924.129 92.0727 922.278 94.2704 920.825 96.9826C919.348 99.6947 918.622 102.43 918.622 105.189C918.622 109.07 920.169 112.531 923.285 115.57C926.379 118.633 931.254 120.41 937.909 120.924C941.096 121.088 944.073 120.737 946.838 119.825C949.603 118.914 951.97 117.557 953.962 115.757C955.954 113.957 957.454 111.736 958.485 109.117C959.517 106.498 959.985 103.623 959.915 100.536L959.517 93.569C959.353 91.8389 959.212 90.1321 959.118 88.4019C959.025 86.6718 958.978 84.965 958.978 83.2348C958.978 79.868 959.306 76.5714 959.938 73.2981C960.595 70.0248 961.813 66.9853 963.618 64.1329L965.165 61.8182C966.102 60.4388 966.922 59.3165 967.555 58.4514C968.211 57.5864 969.125 56.6044 970.344 55.4821H970.203C971.094 54.921 971.234 54.126 970.625 53.1207ZM944.612 107.971C944.26 109.561 943.745 110.941 943.065 112.11C942.362 113.279 941.471 114.191 940.346 114.892C939.222 115.593 937.886 115.851 936.339 115.664C935.12 115.57 933.785 115.126 932.332 114.308C930.855 113.489 929.613 112.227 928.582 110.497C928.23 109.889 927.949 109.211 927.738 108.439C927.527 107.667 927.41 106.896 927.41 106.124C927.41 104.838 927.691 103.669 928.254 102.641C928.816 101.612 929.543 100.723 930.457 99.9987C931.371 99.2739 932.402 98.6894 933.55 98.2451C934.722 97.8243 935.847 97.5905 936.972 97.5905C938.519 97.5905 940.346 98.4556 942.409 100.162C942.831 99.7415 942.995 98.9699 942.854 97.8944C942.713 96.8189 942.456 95.6733 942.081 94.4809C941.682 93.2885 941.284 92.1662 940.862 91.1141C940.44 90.0853 940.089 89.4307 939.831 89.1735C938.542 88.5656 937.159 88.1447 935.683 87.8875L937.745 84.661C938.87 82.8607 940.018 81.0137 941.237 79.1198C942.432 77.226 943.651 75.4257 944.87 73.6956C944.448 75.4257 944.143 77.0624 943.955 78.6756C943.791 80.2655 943.698 81.832 943.698 83.3751C943.698 85.1053 943.791 86.8588 943.955 88.6591C944.12 90.4594 944.307 92.1896 944.471 93.8262C944.635 95.3693 944.799 96.9124 944.916 98.4789C945.057 100.022 945.104 101.542 945.104 102.991C945.127 104.745 944.963 106.382 944.612 107.971Z" fill="#460809"/>
</g>
<defs>
<clipPath id="clip0_21_385">
<rect width="971" height="170" fill="white"/>
</clipPath>
</defs>
</svg>
