<svg width="24" height="24" viewBox="0 0 24 24" fill="none" xmlns="http://www.w3.org/2000/svg">
<g clip-path="url(#clip0_103_416)">
<path d="M16.4342 7.56576C18.8894 10.0209 18.8894 13.9791 16.4342 16.4342C13.9791 18.8894 10.0209 18.8894 7.57829 16.4342C5.1357 13.9791 5.11065 10.0209 7.57829 7.56576C10.0459 5.11065 13.9791 5.11065 16.4342 7.56576ZM21.357 2.66806C21.357 2.66806 20.142 2.81837 18.8017 3.68267C18.5884 2.28477 17.9294 0.993112 16.9228 0C16.2779 0.622442 15.8103 1.40536 15.5681 2.26832C15.326 3.13127 15.318 4.04314 15.5449 4.91023C17.286 5.36117 18.6388 6.71399 19.0898 8.45512C20.4927 8.8309 22.4468 8.64301 24 7.07724C23.0179 6.08537 21.7457 5.4317 20.3674 5.21086C20.8559 4.48434 21.2443 3.64509 21.357 2.66806ZM2.64301 21.3319C2.64301 21.3319 3.85804 21.1816 5.19833 20.3173C5.38622 21.62 6.01253 22.9353 7.07724 24C8.64301 22.4468 8.8309 20.4927 8.45512 19.0898C7.60148 18.8694 6.82246 18.4244 6.19905 17.8009C5.57565 17.1775 5.13062 16.3985 4.91023 15.5449C3.50731 15.1691 1.55324 15.357 0 16.9228C1.05219 17.9749 2.34238 18.6013 3.63257 18.7891C3.14405 19.5157 2.75574 20.3674 2.64301 21.3319Z" fill="white"/>
</g>
<defs>
<clipPath id="clip0_103_416">
<rect width="24" height="24" fill="white"/>
</clipPath>
</defs>
</svg>
