<svg width="12" height="14" viewBox="0 0 12 14" fill="none" xmlns="http://www.w3.org/2000/svg">
<path d="M0.666 5.3727e-06C0.578834 -0.000345441 0.492453 0.016487 0.411796 0.0495405C0.331139 0.082594 0.257787 0.13122 0.195935 0.19264C0.134082 0.254059 0.0849412 0.327067 0.0513214 0.407489C0.0177015 0.487912 0.000262109 0.574172 0 0.661339V12.672C0.00139643 12.8471 0.071612 13.0146 0.195478 13.1383C0.319345 13.2621 0.486919 13.3321 0.662 13.3333H11.338C11.4256 13.3327 11.5122 13.3149 11.5929 13.2807C11.6736 13.2466 11.7468 13.197 11.8083 13.1345C11.8698 13.0721 11.9183 12.9982 11.9512 12.917C11.9841 12.8358 12.0007 12.7489 12 12.6613V3.33334L8.66667 5.3727e-06H0.666ZM5 3.66667H6.33333C6.33333 5.32667 7.76267 7.10667 9.544 7.70067L9.23933 8.99334C7.14867 8.69467 4.988 9.58667 3.03667 10.888L2.25 9.81267C2.974 9.23334 3.66867 8.25067 4.18333 7.10201C4.69667 5.95801 5 4.71801 5 3.66667ZM5.4 7.64801C5.578 7.25001 5.736 6.83734 5.86933 6.41934C6.18784 6.90534 6.57039 7.3462 7.00667 7.73001C6.352 7.84734 5.71133 8.04001 5.09 8.28534C5.19978 8.07601 5.30311 7.86356 5.4 7.64801Z" fill="white"/>
</svg>
