<svg width="14" height="17" viewBox="0 0 14 17" fill="none" xmlns="http://www.w3.org/2000/svg">
<path d="M7.31211 0.181953C7.19499 0.0654188 7.03649 0 6.87127 0C6.70605 0 6.54756 0.0654188 6.43044 0.181953C6.0071 0.603619 5.56377 1.01695 5.10211 1.44862C4.74544 1.78195 4.37711 2.12612 3.99627 2.49362C3.15044 3.31029 2.30294 4.19029 1.61044 5.14362C0.212939 7.06529 -0.591228 9.34612 0.526272 12.0303C1.58377 14.5703 4.13211 16.2503 6.87544 16.2503C9.61877 16.2503 12.1671 14.5703 13.2254 12.0303C14.3429 9.34445 13.5371 7.06362 12.1379 5.14112C11.4446 4.18862 10.5963 3.30779 9.74961 2.49195C9.36877 2.12529 8.99877 1.78029 8.64127 1.44695C8.19142 1.03249 7.7483 0.610765 7.31211 0.181953Z" fill="white"/>
</svg>
