<svg width="19" height="18" viewBox="0 0 19 18" fill="none" xmlns="http://www.w3.org/2000/svg">
<path d="M7.89043 0.923539C8.246 0.443077 8.797 0 9.5 0C10.203 0 10.754 0.443077 11.1096 0.923539C11.4746 1.41508 11.7203 2.04923 11.8017 2.67785C11.8831 3.30092 11.8153 4.00708 11.4394 4.58169C11.039 5.19231 10.3672 5.53846 9.5 5.53846C8.63143 5.53846 7.961 5.19231 7.56064 4.58169C7.18607 4.00569 7.11686 3.29954 7.19829 2.67785C7.27971 2.04923 7.52536 1.41508 7.89043 0.923539ZM1.39786 9.20769C1.50945 8.56713 1.83855 7.9871 2.32742 7.56935C2.8163 7.1516 3.43373 6.9228 4.07143 6.92308H14.9286C15.6019 6.92314 16.2511 7.17851 16.7502 7.63961C17.2493 8.1007 17.5626 8.73459 17.6293 9.41815C17.0026 10.0479 16.3568 10.6574 15.6926 11.2458C15.1104 11.7568 14.5011 12.2538 13.9596 12.6208C13.6872 12.8054 13.4506 12.9443 13.2498 13.0375C13.1383 13.0971 13.0175 13.1365 12.8929 13.1538C12.5427 13.1538 12.3066 12.924 11.7786 12.3383L11.7746 12.3342C11.3186 11.8302 10.64 11.0769 9.5 11.0769C8.36 11.0769 7.68143 11.8302 7.22543 12.3342L7.22136 12.3383C6.69207 12.924 6.45729 13.1538 6.10714 13.1538C6.07804 13.1505 6.04938 13.144 6.02164 13.1345C5.94115 13.1105 5.86301 13.079 5.78821 13.0403C5.54442 12.919 5.30988 12.7792 5.08657 12.6222C4.54914 12.2538 3.933 11.754 3.344 11.2417C2.66863 10.653 2.01058 10.044 1.37071 9.41539C1.37795 9.34523 1.387 9.276 1.39786 9.20769ZM1.35714 11.2985C1.68693 11.6072 2.06693 11.952 2.46457 12.2982C3.06986 12.8243 3.72943 13.3629 4.332 13.7742C4.63193 13.9791 4.93186 14.1618 5.21143 14.2962C5.47607 14.4222 5.79229 14.5398 6.10714 14.5398C7.09514 14.5398 7.72486 13.8337 8.13607 13.3712L8.22021 13.2785C8.702 12.7426 9.01414 12.4615 9.5 12.4615C9.98586 12.4615 10.298 12.7426 10.7798 13.2771L10.8639 13.3698C11.2751 13.8323 11.9049 14.5385 12.8929 14.5385C13.2131 14.5385 13.5348 14.4263 13.8116 14.2975C14.1237 14.1467 14.4241 13.9717 14.7101 13.7742C15.3208 13.3615 15.979 12.8202 16.5789 12.2926C16.9616 11.9575 17.3253 11.6211 17.6429 11.3206V16.6154H18.3214C18.5014 16.6154 18.674 16.6883 18.8013 16.8182C18.9285 16.948 19 17.1241 19 17.3077C19 17.4913 18.9285 17.6674 18.8013 17.7972C18.674 17.9271 18.5014 18 18.3214 18H0.678571C0.498603 18 0.326006 17.9271 0.198749 17.7972C0.0714921 17.6674 0 17.4913 0 17.3077C0 17.1241 0.0714921 16.948 0.198749 16.8182C0.326006 16.6883 0.498603 16.6154 0.678571 16.6154H1.35714V11.2985Z" fill="white"/>
</svg>
