<svg width="133" height="35" viewBox="0 0 133 35" fill="none" xmlns="http://www.w3.org/2000/svg">
<g clip-path="url(#clip0_103_316)">
<mask id="mask0_103_316" style="mask-type:luminance" maskUnits="userSpaceOnUse" x="0" y="0" width="133" height="35">
<path d="M127.379 19.1903C125.472 19.1903 123.866 18.7926 122.561 17.9972L122.46 18.0966C123.063 19.5881 124.066 20.3835 125.472 20.3835C126.475 20.3835 127.078 19.9858 127.379 19.1903ZM127.58 17.9972C127.58 17.5 127.379 16.5057 126.977 15.1136C126.576 13.821 126.375 12.9261 126.475 12.6278C125.271 14.6165 124.167 16.108 123.263 17.2017C124.669 17.8977 126.174 18.2955 127.58 18.3949C127.58 18.2955 127.58 18.196 127.58 17.9972ZM133 16.4062C133 16.5057 133 16.6051 132.9 16.7045C132.097 17.8977 130.792 18.6932 128.985 19.0909C128.885 19.7869 128.483 20.3835 127.881 20.7812C127.278 21.179 126.676 21.3778 125.873 21.3778C124.769 21.3778 123.765 20.9801 122.862 20.1847C121.958 19.3892 121.457 18.4943 121.457 17.4006C121.457 16.7045 121.657 16.4062 122.059 16.4062C122.26 16.4062 122.561 16.6051 122.762 16.9034C123.163 16.5057 123.765 15.6108 124.468 14.3182C125.271 12.9261 125.873 11.9318 126.475 11.4347C127.278 10.5398 128.182 10.0426 128.985 10.0426C129.286 10.0426 129.688 10.142 129.989 10.3409C130.29 10.5398 130.491 10.8381 130.491 11.1364C130.491 11.3352 130.189 11.4347 129.688 11.4347C129.186 11.4347 128.684 11.6335 128.182 11.9318C127.78 12.2301 127.479 12.7273 127.479 13.2244C127.479 13.4233 127.479 13.6222 127.58 13.821C127.881 14.6165 128.182 15.3125 128.483 16.108C128.784 17.0028 128.985 17.7983 128.985 18.4943C130.39 18.2955 131.494 17.5994 132.498 16.4062C132.598 16.3068 132.598 16.3068 132.699 16.3068C132.9 16.108 133 16.2074 133 16.4062ZM120.152 12.8267C120.152 12.5284 120.051 12.429 119.75 12.429C119.349 12.429 118.847 12.9261 118.144 14.0199C117.542 14.9148 117.14 15.6108 117.04 16.108C117.642 15.8097 118.245 15.4119 118.947 14.7159C119.75 14.0199 120.152 13.4233 120.152 12.8267ZM123.565 16.6051C123.565 16.6051 123.565 16.7045 123.464 16.804C122.862 17.6989 121.958 18.5938 120.854 19.2898C119.65 20.0852 118.445 20.483 117.442 20.483C115.936 20.483 115.233 19.5881 115.233 17.6989C115.233 16.5057 115.735 15.1136 116.839 13.7216C117.943 12.1307 119.148 11.4347 120.352 11.4347C120.553 11.4347 120.754 11.5341 120.955 11.733C121.155 11.9318 121.256 12.1307 121.256 12.429C121.256 13.125 120.654 14.0199 119.549 15.0142C118.546 15.9091 117.642 16.5057 116.839 16.804C116.638 17.4006 116.638 17.8977 116.638 18.2955C116.638 19.2898 117.04 19.6875 117.943 19.6875C118.746 19.6875 119.65 19.3892 120.754 18.6932C121.657 18.0966 122.46 17.4006 123.063 16.7045C123.263 16.5057 123.364 16.3068 123.565 16.3068C123.565 16.4062 123.565 16.5057 123.565 16.6051ZM116.638 16.2074C116.638 16.4062 116.538 16.6051 116.438 16.804C114.832 19.3892 113.125 20.6818 111.419 20.6818C110.114 20.6818 109.411 19.8864 109.411 18.196C109.411 16.7045 109.712 15.4119 110.415 14.3182C108.809 15.8097 107.103 17.7983 105.396 20.3835C105.296 20.5824 105.195 20.6818 105.095 20.6818C104.894 20.6818 104.794 20.483 104.794 20.0852C104.794 19.9858 104.794 19.8864 104.894 19.7869C105.396 18.5938 105.898 16.9034 106.5 14.6165C106.601 14.2188 106.701 13.7216 106.902 12.9261C107.002 12.7273 107.103 12.6278 107.404 12.429C107.705 12.2301 107.906 12.2301 108.106 12.2301C108.307 12.2301 108.307 12.3295 108.307 12.429C108.307 12.6278 107.705 14.4176 106.601 17.7983C106.902 17.4006 107.805 16.4062 109.211 14.8153C109.712 14.2188 110.415 13.4233 111.419 12.429C111.62 12.2301 111.82 12.2301 112.021 12.2301C112.523 12.2301 112.824 12.5284 112.824 13.0256C112.824 13.125 112.824 13.3239 112.724 13.4233C111.419 15.6108 110.716 17.3011 110.716 18.4943C110.716 19.3892 111.118 19.7869 112.021 19.7869C112.724 19.7869 113.426 19.4886 114.129 18.7926C114.631 18.3949 115.133 17.6989 115.835 16.9034C116.337 16.2074 116.638 15.9091 116.638 15.9091C116.538 16.0085 116.638 16.0085 116.638 16.2074ZM100.478 20.9801C98.8717 21.2784 97.0649 21.875 94.957 22.9688C92.8491 24.0625 91.1426 25.1562 90.0385 26.1506C88.2317 27.8409 87.4287 29.5312 87.4287 31.1222C87.4287 32.017 87.7298 32.7131 88.3321 33.3097C88.9343 33.9062 89.637 34.1051 90.5404 34.1051C92.046 34.1051 93.4513 33.5085 94.8566 32.3153C95.9608 31.321 96.9645 30.1278 97.8679 28.6364C98.9721 26.6477 99.8755 24.0625 100.478 20.9801ZM102.586 12.7273C102.485 12.7273 102.385 12.7273 102.285 12.7273C101.381 12.7273 100.377 13.3239 99.3736 14.517C97.9683 16.2074 97.2657 17.6989 97.2657 18.7926C97.2657 19.2898 97.4664 19.4886 97.7675 19.4886C98.2694 19.4886 98.9721 18.9915 99.7751 17.8977C100.879 16.4062 101.783 14.7159 102.586 12.7273ZM104.292 12.6278C104.292 12.7273 104.192 12.8267 103.991 12.8267C103.79 12.9261 103.589 13.0256 103.589 13.125C103.489 13.6222 103.389 14.2188 103.188 14.9148C102.887 16.108 102.485 17.8977 101.983 20.2841H102.084C103.288 20.2841 103.991 20.483 103.991 21.0795C103.991 21.179 103.991 21.2784 103.891 21.2784C103.891 21.2784 103.79 21.179 103.589 21.0795C103.389 20.9801 103.088 20.8807 102.586 20.8807C102.385 20.8807 102.084 20.8807 101.883 20.8807C100.98 24.3608 99.8755 27.1449 98.5706 29.0341C96.0611 32.7131 93.3509 34.6023 90.44 34.6023C89.3358 34.6023 88.3321 34.304 87.6294 33.608C86.8264 32.9119 86.5253 32.1165 86.5253 31.0227C86.5253 28.5369 88.3321 26.1506 91.9457 23.8636C94.957 21.9744 97.9683 20.7812 100.779 20.2841C100.98 19.3892 101.18 18.0966 101.582 16.2074C99.9758 18.9915 98.5706 20.3835 97.366 20.3835C96.6634 20.3835 96.2619 19.9858 96.2619 19.1903C96.2619 17.9972 96.8641 16.5057 98.0687 14.8153C99.2732 13.125 100.377 12.0312 101.482 11.6335C101.883 11.4347 102.285 11.4347 102.686 11.4347C102.987 11.4347 103.389 11.5341 103.891 11.733C103.991 12.1307 104.292 12.3295 104.292 12.6278ZM84.9192 13.2244H83.9155C79.9004 13.2244 76.7887 13.5227 74.6808 14.0199C73.4762 14.3182 72.4725 14.9148 71.5691 15.7102C70.5653 16.6051 70.0634 17.6989 70.0634 18.7926C70.0634 19.5881 70.3645 20.1847 71.0672 20.5824C71.5691 20.9801 72.2717 21.0795 73.1751 21.0795C74.9819 21.0795 76.6883 20.483 78.3947 19.2898C79.4989 18.4943 80.9042 17.3011 82.6106 15.5114C83.4136 14.9148 84.1162 14.1193 84.9192 13.2244ZM97.0649 0.298295C97.0649 0.397727 96.9645 0.497159 96.8642 0.696023C94.8566 3.97727 93.1502 8.05398 91.8453 12.9261C92.9494 13.2244 93.4513 13.5227 93.4513 13.821C93.4513 14.0199 93.3509 14.2188 93.0498 14.2188C93.0498 14.2188 92.8491 14.1193 92.4475 14.0199C92.046 13.821 91.7449 13.821 91.6445 13.7216C90.9419 16.5057 90.6408 18.6932 90.6408 20.3835C90.6408 21.179 90.7411 21.5767 91.0423 21.5767C91.243 21.5767 91.5442 21.4773 91.9457 21.179C92.3472 20.8807 92.5479 20.7812 92.6483 20.7812C92.8491 20.7812 92.9494 20.8807 92.9494 21.179C92.9494 21.4773 92.7487 21.6761 92.2468 21.9744C91.7449 22.2727 91.4438 22.3722 91.1426 22.3722C90.2393 22.3722 89.8377 21.6761 89.8377 20.1847C89.8377 18.6932 90.1389 16.5057 90.7411 13.6222C89.5366 13.4233 88.1313 13.3239 86.5253 13.3239C85.8226 14.2188 84.9192 15.2131 83.7147 16.5057C81.8075 18.4943 80.4023 19.8864 79.3985 20.6818C77.5917 21.9744 75.6845 22.6705 73.7774 22.6705C72.4725 22.6705 71.4687 22.3722 70.6657 21.875C69.7623 21.2784 69.2604 20.3835 69.2604 19.1903C69.2604 17.7983 69.8626 16.6051 70.9668 15.4119C71.9706 14.4176 73.2755 13.7216 74.6808 13.3239C76.9894 12.6278 80.8038 12.3295 85.923 12.3295C87.4287 10.5398 89.0347 8.65057 90.5404 6.66193C90.9419 6.06534 91.6445 5.17045 92.5479 4.0767C92.6483 3.97727 92.7487 3.87784 92.8491 3.87784C93.1502 3.87784 93.3509 3.97727 93.3509 4.27557C93.3509 4.375 93.3509 4.47443 93.2506 4.47443C93.1502 4.6733 92.3472 5.66761 91.0423 7.35795C89.5366 9.34659 88.2317 11.0369 87.3283 12.2301C88.5328 12.3295 89.637 12.429 90.8415 12.7273C91.5442 9.74432 92.3472 6.96023 93.3509 4.375C93.6521 3.67898 94.154 2.58523 94.7562 1.29261C94.8566 1.09375 95.1577 0.894886 95.76 0.596591C96.1615 0.198864 96.563 0 96.7638 0C96.9645 0 97.0649 0.0994318 97.0649 0.298295ZM65.7472 16.3068C65.7472 16.5057 65.6468 16.7045 65.5464 16.9034C63.4385 19.6875 61.5313 21.179 60.0257 21.179C58.7208 21.179 58.1185 20.483 58.1185 19.0909C58.1185 18.3949 58.3192 17.4006 58.8211 16.2074C59.2226 15.1136 59.7245 14.2188 60.126 13.6222C60.2264 13.4233 60.4272 13.3239 60.6279 13.3239C60.8287 13.3239 61.0294 13.4233 61.2302 13.6222C61.4309 13.821 61.5313 14.0199 61.5313 14.2188C61.5313 14.3182 61.5313 14.4176 61.4309 14.6165C60.2264 16.4062 59.6242 17.9972 59.6242 19.1903C59.6242 19.9858 59.9253 20.483 60.5275 20.483C61.2302 20.483 61.9328 20.0852 62.8362 19.3892C63.4385 18.892 64.0408 18.196 64.7434 17.4006C65.3457 16.6051 65.6468 16.3068 65.6468 16.3068C65.7472 16.0085 65.7472 16.108 65.7472 16.3068ZM63.4385 9.94318C63.4385 10.2415 63.3381 10.4403 63.1374 10.7386C62.9366 10.9375 62.6355 11.0369 62.3343 11.0369C61.7321 11.0369 61.5313 10.7386 61.5313 10.2415C61.5313 9.94318 61.6317 9.74432 61.8325 9.44602C62.0332 9.24716 62.3343 9.14773 62.6355 9.14773C63.1374 9.14773 63.4385 9.44602 63.4385 9.94318ZM59.4234 16.2074C59.4234 16.4062 59.323 16.6051 59.2226 16.804C57.6166 19.3892 55.9102 20.6818 54.2038 20.6818C52.8989 20.6818 52.1962 19.8864 52.1962 18.196C52.1962 16.7045 52.4974 15.4119 53.2 14.3182C51.594 15.8097 49.8875 17.7983 48.1811 20.3835C48.0808 20.5824 47.9804 20.6818 47.88 20.6818C47.6792 20.6818 47.5789 20.483 47.5789 20.0852C47.5789 19.9858 47.5789 19.8864 47.6792 19.7869C48.1811 18.5938 48.683 16.9034 49.2853 14.6165C49.3857 14.2188 49.486 13.7216 49.6868 12.9261C49.7872 12.7273 49.8875 12.6278 50.1887 12.429C50.4898 12.2301 50.6906 12.2301 50.8913 12.2301C51.0921 12.2301 51.0921 12.3295 51.0921 12.429C51.0921 12.6278 50.4898 14.4176 49.3857 17.7983C49.6868 17.4006 50.5902 16.4062 51.9955 14.8153C52.4974 14.2188 53.2 13.4233 54.2038 12.429C54.4045 12.2301 54.6053 12.2301 54.806 12.2301C55.3079 12.2301 55.6091 12.5284 55.6091 13.0256C55.6091 13.125 55.6091 13.3239 55.5087 13.4233C54.2038 15.6108 53.5011 17.3011 53.5011 18.4943C53.5011 19.3892 53.9026 19.7869 54.806 19.7869C55.5087 19.7869 56.2113 19.4886 56.914 18.7926C57.4158 18.3949 57.9177 17.6989 58.6204 16.9034C59.1223 16.2074 59.4234 15.9091 59.4234 15.9091C59.4234 16.0085 59.4234 16.0085 59.4234 16.2074ZM44.3668 12.7273C44.2664 12.7273 44.166 12.7273 44.0657 12.7273C43.1623 12.7273 42.1585 13.3239 41.1547 14.517C39.7494 16.2074 39.0468 17.6989 39.0468 18.7926C39.0468 19.2898 39.2475 19.4886 39.5487 19.4886C40.0506 19.4886 40.7532 18.9915 41.5562 17.8977C42.56 16.4062 43.5638 14.7159 44.3668 12.7273ZM49.486 16.4062C49.486 16.5057 49.3857 16.7045 49.2853 16.9034C48.2815 18.5938 47.2777 19.6875 46.3743 20.0852C45.9728 20.2841 45.5713 20.3835 45.0694 20.3835C43.6642 20.3835 42.9615 19.3892 42.9615 17.3011C42.9615 17.0028 42.9615 16.6051 43.0619 16.2074C41.4558 18.9915 40.0506 20.3835 38.846 20.3835C38.1434 20.3835 37.7419 19.9858 37.7419 19.1903C37.7419 17.9972 38.3442 16.5057 39.5487 14.8153C40.7532 13.125 41.8574 12.0312 42.9615 11.6335C43.363 11.4347 43.7645 11.4347 44.166 11.4347C44.9691 11.4347 45.6717 11.733 45.9728 12.3295C46.0732 12.429 46.0732 12.5284 46.0732 12.5284C46.0732 12.5284 45.9728 12.6278 45.8725 12.6278C45.6717 12.6278 45.5713 12.7273 45.4709 12.8267C44.8687 13.7216 44.6679 15.1136 44.6679 16.9034C44.6679 18.5938 45.0694 19.3892 45.7721 19.3892C46.274 19.3892 47.077 18.7926 47.9804 17.6989C48.9841 16.6051 49.486 16.0085 49.486 16.0085C49.486 16.2074 49.486 16.3068 49.486 16.4062ZM39.6491 16.3068C39.6491 16.4062 39.6491 16.5057 39.5487 16.5057C38.846 17.6989 37.8423 18.2955 36.6377 18.2955C35.2325 18.2955 34.4294 17.5994 34.1283 16.2074C33.7268 16.9034 33.1245 17.6989 32.0204 18.6932C30.9162 19.7869 30.0128 20.2841 29.4106 20.2841C28.6075 20.2841 28.1057 19.6875 28.1057 18.4943C28.1057 17.6989 28.3064 16.804 28.7079 15.9091C28.7079 15.9091 28.7079 16.0085 28.6075 16.0085C28.3064 16.6051 27.9049 17.1023 27.5034 17.5C27.3026 17.6989 27.2023 17.6989 27.1019 17.6989C27.0015 17.6989 27.0015 17.6989 27.0015 17.5994C27.0015 17.4006 27.5034 16.804 28.4068 15.6108C29.3102 14.517 29.9125 13.821 30.2136 13.5227C30.4143 13.3239 30.6151 13.2244 30.9162 13.2244C31.2174 13.2244 31.3177 13.3239 31.3177 13.5227C31.3177 13.6222 31.3177 13.7216 31.2174 13.9205C29.7117 16.0085 28.9087 17.6989 28.9087 18.9915C28.9087 19.4886 29.1094 19.6875 29.6113 19.6875C30.314 19.6875 31.117 19.0909 32.1208 17.9972C32.9238 17.1023 33.526 16.2074 33.9275 15.4119V15.2131C33.9275 15.0142 33.9275 14.8153 33.9275 14.517C33.9275 14.2188 33.9275 14.0199 33.9275 13.821C33.9275 12.5284 34.4294 11.6335 35.4332 11.2358C35.634 11.1364 35.7343 11.1364 35.8347 11.1364C36.1358 11.1364 36.3366 11.3352 36.3366 11.733C36.3366 12.7273 35.9351 13.821 35.0317 15.2131V15.4119C35.0317 16.0085 35.2325 16.5057 35.634 17.1023C36.0355 17.5994 36.5374 17.8977 37.0392 17.8977C37.6415 17.8977 38.1434 17.5994 38.7457 16.9034C39.3479 16.3068 39.5487 15.9091 39.5487 15.9091C39.5487 16.0085 39.6491 16.108 39.6491 16.3068ZM15.6589 13.2244H14.6551C10.64 13.2244 7.5283 13.5227 5.42038 14.0199C4.21585 14.3182 3.21208 14.9148 2.30868 15.7102C1.30491 16.6051 0.803019 17.6989 0.803019 18.7926C0.803019 19.5881 1.10415 20.1847 1.80679 20.5824C2.30868 20.9801 3.01132 21.0795 3.91472 21.0795C5.72151 21.0795 7.42792 20.483 9.13434 19.2898C10.2385 18.4943 11.6438 17.3011 13.3502 15.5114C14.2536 14.9148 14.9562 14.1193 15.6589 13.2244ZM27.9049 0.298295C27.9049 0.397727 27.8045 0.497159 27.7042 0.696023C25.6966 3.97727 23.9902 8.05398 22.6853 12.9261C23.7894 13.2244 24.2913 13.5227 24.2913 13.821C24.2913 14.0199 24.1909 14.2188 23.8898 14.2188C23.8898 14.2188 23.6891 14.1193 23.2875 14.0199C22.886 13.821 22.5849 13.821 22.4845 13.7216C21.7819 16.5057 21.4808 18.6932 21.4808 20.3835C21.4808 21.179 21.5811 21.5767 21.8823 21.5767C22.083 21.5767 22.3842 21.4773 22.7857 21.179C23.1872 20.8807 23.3879 20.7812 23.4883 20.7812C23.6891 20.7812 23.7894 20.8807 23.7894 21.179C23.7894 21.4773 23.5887 21.6761 23.0868 21.9744C22.5849 22.2727 22.2838 22.3722 21.9826 22.3722C21.0792 22.3722 20.6777 21.6761 20.6777 20.1847C20.6777 18.6932 20.9789 16.5057 21.5811 13.6222C20.3766 13.4233 18.9713 13.3239 17.3653 13.3239C16.6626 14.2188 15.7592 15.2131 14.5547 16.5057C12.6475 18.4943 11.2423 19.8864 10.2385 20.6818C8.4317 21.9744 6.52453 22.6705 4.61736 22.6705C3.31245 22.6705 2.30868 22.3722 1.50566 21.875C0.501887 21.0795 0 20.0852 0 18.892C0 17.5 0.602264 16.3068 1.70642 15.1136C2.71019 14.1193 4.01509 13.4233 5.42038 13.0256C7.72906 12.3295 11.5434 12.0312 16.6626 12.0312C18.1683 10.2415 19.7743 8.35227 21.28 6.36364C21.6815 5.76705 22.3842 4.87216 23.2875 3.77841C23.3879 3.67898 23.4883 3.57955 23.5887 3.57955C23.8898 3.57955 24.0906 3.67898 24.0906 3.97727C24.0906 4.0767 24.0906 4.17614 23.9902 4.17614C23.8898 4.375 23.0868 5.36932 21.7819 7.05966C20.2762 9.0483 18.9713 10.7386 18.0679 11.9318C19.2725 12.0312 20.3766 12.1307 21.5811 12.429C22.2838 9.44602 23.0868 6.66193 24.0906 4.0767C24.3917 3.38068 24.8936 2.28693 25.4958 0.994318C25.5962 0.795455 25.8974 0.596591 26.4996 0.298295C27.0015 0.198864 27.403 0 27.5034 0C27.8045 0 27.9049 0.0994318 27.9049 0.298295Z" fill="white"/>
</mask>
<g mask="url(#mask0_103_316)">
<path d="M133 0H0V34.7017H133V0Z" fill="white"/>
</g>
<path d="M5.82186 30.625L6.02261 31.1221C5.6211 30.7244 5.01884 30.4261 4.41657 30.4261C3.81431 30.4261 3.31242 30.625 2.91091 31.0227C2.5094 31.4204 2.30865 31.8181 2.30865 32.4147C2.30865 32.713 2.40903 33.1108 2.60978 33.5085C2.81054 33.9062 3.01129 34.3039 3.4128 34.5028C3.81431 34.8011 4.21582 34.9005 4.71771 34.9005C5.01884 34.9005 5.42035 34.8011 5.72148 34.7017C6.02261 34.6022 6.32374 34.4034 6.42412 34.3039L6.12299 34.8011C5.6211 34.9005 5.21959 35 5.11922 35C5.01884 35 4.71771 35 4.51695 35C3.51318 35 2.81054 34.8011 2.40903 34.3039C2.00752 33.8068 1.80676 33.3096 1.80676 32.713C1.80676 32.3153 1.90714 31.9176 2.10789 31.5198C2.30865 31.1221 2.60978 30.8238 3.01129 30.625C3.4128 30.4261 3.91469 30.3267 4.41657 30.3267C4.71771 30.3267 4.91846 30.3267 5.11922 30.4261C5.31997 30.5255 5.42035 30.5255 5.6211 30.5255L5.82186 30.625Z" fill="white"/>
<path d="M8.63245 30.4261L11.5434 30.3267V30.9233C11.443 30.7244 11.443 30.5255 11.3426 30.5255C11.3426 30.5255 11.2423 30.4261 11.0415 30.4261H9.43546V32.5142H10.8407C10.9411 32.5142 11.0415 32.5142 11.1419 32.5142C11.2423 32.5142 11.2423 32.4147 11.2423 32.4147V32.8125C11.2423 32.713 11.2423 32.713 11.1419 32.713C11.1419 32.713 11.0415 32.713 10.9411 32.713H9.43546V34.1051C9.43546 34.3039 9.43546 34.5028 9.53584 34.6022C9.63622 34.7017 9.63622 34.8011 9.7366 34.8011C9.83697 34.8011 9.93735 34.8011 10.1381 34.8011H10.9411C11.2423 34.8011 11.3426 34.8011 11.443 34.8011C11.5434 34.8011 11.5434 34.7017 11.6438 34.7017C11.7441 34.7017 11.7441 34.5028 11.7441 34.4034V35H8.63245C8.73282 35 8.8332 35 8.8332 34.9005C8.93358 34.9005 8.93358 34.8011 8.93358 34.6022V30.9233C8.93358 30.7244 8.93358 30.625 8.93358 30.5255C8.93358 30.4261 8.73282 30.4261 8.63245 30.4261Z" fill="white"/>
<path d="M13.9524 30.4263H15.2573C15.5585 30.4263 15.8596 30.4263 15.96 30.4263C16.0604 30.4263 16.2611 30.5257 16.4619 30.5257C16.6626 30.6251 16.763 30.7246 16.8634 30.824C16.9637 30.9234 16.9637 31.1223 16.9637 31.3212C16.9637 31.52 16.8634 31.8183 16.763 32.0172C16.6626 32.216 16.4619 32.4149 16.1607 32.5143L16.4619 33.0115C16.5622 33.1109 16.763 33.4092 17.0641 33.807C17.3653 34.2047 17.566 34.503 17.7668 34.6024C17.8671 34.8013 18.0679 34.8013 18.1683 34.8013C18.369 34.8013 18.4694 34.7018 18.6702 34.6024V34.7018C18.369 34.9007 18.0679 35.0001 17.6664 35.0001C17.3653 35.0001 17.1645 34.9007 16.9637 34.8013C16.763 34.6024 16.4619 34.2047 15.96 33.5087L15.4581 32.8126H15.0566H14.6551V34.6024C14.6551 34.7018 14.6551 34.8013 14.7554 34.9007C14.7554 35.0001 14.8558 35.0001 15.0566 35.0001H13.8521C13.9524 35.0001 14.0528 35.0001 14.1532 34.9007C14.1532 34.8013 14.2536 34.7018 14.2536 34.6024V30.824C14.2536 30.7246 14.2536 30.6251 14.2536 30.5257C14.1532 30.4263 14.0528 30.4263 13.9524 30.4263ZM14.7554 30.5257V32.7132H15.2573C15.6588 32.7132 15.96 32.6138 16.0604 32.4149C16.2611 32.216 16.3615 32.0172 16.3615 31.7189C16.3615 31.4206 16.2611 31.1223 16.0604 30.9234C15.8596 30.6251 15.5585 30.5257 15.0566 30.5257H14.7554Z" fill="white"/>
<path d="M22.083 30.3267C21.9826 30.3267 21.9826 30.4261 21.8823 30.4261C21.7819 30.4261 21.7819 30.5255 21.7819 30.5255C21.7819 30.5255 21.7819 30.7244 21.7819 30.8238V34.3039C21.7819 34.5028 21.7819 34.6022 21.7819 34.7017C21.7819 34.7017 21.7819 34.8011 21.8823 34.8011C21.8823 34.8011 21.9826 34.8011 22.083 34.8011H20.8785C21.0792 34.8011 21.1796 34.8011 21.1796 34.7017C21.1796 34.6022 21.28 34.5028 21.28 34.3039V30.8238C21.28 30.625 21.28 30.4261 21.1796 30.4261C21.1796 30.3267 21.0792 30.3267 20.8785 30.3267H22.083Z" fill="white"/>
<path d="M28.6075 30.3267H29.3101C29.1094 30.3267 28.9086 30.4261 28.9086 30.7244C28.9086 30.8238 28.9086 30.8238 28.9086 30.9233L29.4105 34.4034C29.4105 34.6022 29.5109 34.7017 29.5109 34.7017C29.5109 34.7017 29.6113 34.8011 29.7116 34.8011H28.7079C28.8083 34.8011 28.9086 34.7017 28.9086 34.6022C28.9086 34.6022 28.9086 34.5028 28.9086 34.4034L28.4067 31.0227L26.8007 34.8011L25.0943 31.1221L24.5924 34.5028C24.5924 34.6022 24.5924 34.6022 24.5924 34.7017C24.5924 34.8011 24.6928 34.9005 24.7932 34.9005H24.0905C24.1909 34.9005 24.2913 34.9005 24.2913 34.9005L24.3916 34.8011C24.3916 34.8011 24.3916 34.7017 24.3916 34.6022L24.8935 30.9233C24.7932 30.7244 24.6928 30.625 24.5924 30.5255C24.492 30.5255 24.3916 30.4261 24.3916 30.4261H25.295L26.9011 34.2045L28.6075 30.3267Z" fill="white"/>
<path d="M34.4294 30.3267C35.0317 30.3267 35.6339 30.5255 36.0354 30.9233C36.4369 31.321 36.6377 31.8181 36.6377 32.4147C36.6377 33.2102 36.4369 33.8068 35.9351 34.3039C35.4332 34.8011 34.8309 35.0994 34.0279 35.0994C33.4256 35.0994 32.8234 34.9005 32.4218 34.5028C32.0203 34.1051 31.8196 33.6079 31.8196 33.0113C31.8196 32.6136 31.92 32.2159 32.1207 31.8181C32.3215 31.4204 32.6226 31.0227 33.0241 30.8238C33.4256 30.4261 33.9275 30.3267 34.4294 30.3267ZM34.4294 34.8011C34.7305 34.8011 35.0317 34.7017 35.3328 34.5028C35.6339 34.3039 35.9351 34.1051 36.0354 33.8068C36.2362 33.5085 36.3366 33.2102 36.3366 32.9119C36.3366 32.5142 36.2362 32.017 35.9351 31.7187C35.7343 31.321 35.4332 31.1221 35.0317 30.8238C34.6301 30.625 34.329 30.5255 33.9275 30.5255C33.4256 30.5255 33.0241 30.7244 32.723 31.0227C32.3215 31.321 32.1207 31.8181 32.1207 32.3153C32.1207 33.0113 32.3215 33.5085 32.8234 34.0056C33.3252 34.5028 33.8271 34.8011 34.4294 34.8011Z" fill="white"/>
<path d="M42.7607 30.3266H43.6641C43.5637 30.3266 43.4633 30.3266 43.363 30.426C43.2626 30.5255 43.2626 30.6249 43.2626 30.7243V34.9005L39.5486 31.0226V34.4033C39.5486 34.5027 39.5486 34.6022 39.5486 34.6022C39.5486 34.7016 39.5486 34.7016 39.649 34.7016C39.7494 34.7016 39.7494 34.7016 39.8498 34.801H38.9464C39.1471 34.801 39.2475 34.801 39.2475 34.7016C39.2475 34.6022 39.3479 34.5027 39.3479 34.3039V31.2215C39.3479 30.9232 39.3479 30.7243 39.2475 30.5255C39.1471 30.3266 38.9464 30.2272 38.7456 30.3266H39.649L43.0618 34.0056V30.8238C43.0618 30.6249 43.0618 30.5255 42.9615 30.5255C42.8611 30.5255 42.8611 30.426 42.7607 30.3266Z" fill="white"/>
<path d="M47.1773 30.3267C47.0769 30.3267 47.0769 30.4261 46.9766 30.4261C46.8762 30.4261 46.8762 30.5255 46.8762 30.5255C46.8762 30.5255 46.8762 30.7244 46.8762 30.8238V34.3039C46.8762 34.5028 46.8762 34.6022 46.8762 34.7017C46.8762 34.7017 46.8762 34.8011 46.9766 34.8011C46.9766 34.8011 47.0769 34.8011 47.1773 34.8011H45.9728C46.1735 34.8011 46.2739 34.8011 46.2739 34.7017C46.2739 34.6022 46.3743 34.5028 46.3743 34.3039V30.8238C46.3743 30.625 46.3743 30.4261 46.2739 30.4261C46.2739 30.3267 46.1735 30.3267 45.9728 30.3267H47.1773Z" fill="white"/>
<path d="M52.0958 32.8125H50.8913L50.289 34.5029C50.289 34.6023 50.1887 34.7017 50.1887 34.7017C50.1887 34.8012 50.1887 34.8012 50.289 34.8012H49.6868C49.7871 34.8012 49.7871 34.8012 49.8875 34.7017C49.9879 34.7017 49.9879 34.5029 50.0883 34.4034L51.4936 30.2273H51.5939L52.9992 34.304C52.9992 34.304 52.9992 34.4034 53.0996 34.6023C53.2 34.8012 53.3004 34.9006 53.4007 34.9006H52.4973C52.5977 34.9006 52.5977 34.9006 52.5977 34.8012C52.5977 34.7017 52.5977 34.7017 52.4973 34.5029L52.0958 32.8125ZM50.9917 32.7131H52.0958L51.5939 31.1222L50.9917 32.7131Z" fill="white"/>
<path d="M55.5087 35.0001C55.609 35.0001 55.7094 34.9007 55.8098 34.9007C55.8098 34.8013 55.9102 34.8013 55.9102 34.6024V30.824C55.9102 30.7246 55.9102 30.6251 55.8098 30.5257C55.8098 30.4263 55.7094 30.4263 55.5087 30.4263H56.7132C56.6128 30.4263 56.5124 30.4263 56.5124 30.4263L56.4121 30.5257C56.4121 30.5257 56.4121 30.6251 56.4121 30.824V34.0058C56.4121 34.3041 56.5124 34.503 56.6128 34.6024C56.7132 34.7018 57.0143 34.8013 57.3155 34.8013H57.9177C58.2189 34.8013 58.4196 34.7018 58.52 34.6024C58.6204 34.503 58.7207 34.2047 58.7207 33.807V34.9007H55.5087V35.0001Z" fill="white"/>
</g>
<defs>
<clipPath id="clip0_103_316">
<rect width="133" height="35" fill="white"/>
</clipPath>
</defs>
</svg>
